<?xml version="1.0" encoding="utf-8"?>
<!-- Generator: Adobe Illustrator 23.0.5, SVG Export Plug-In . SVG Version: 6.00 Build 0)  -->
<svg version="1.1" id="Layer_1" xmlns="http://www.w3.org/2000/svg" xmlns:xlink="http://www.w3.org/1999/xlink" x="0px" y="0px"
	 viewBox="0 0 69 69" style="enable-background:new 0 0 69 69;" xml:space="preserve">
<style type="text/css">
	.st0{fill:#FFFFFF;}
</style>
<path class="st0" d="M55.7,0H13.3C6,0,0,6,0,13.3v14.1v28.2C0,63,6,69,13.3,69h42.3C63,69,69,63,69,55.7V27.4V13.3C69,6,63,0,55.7,0
	z M59.5,8l1.5,0v1.5v10.2l-11.7,0l0-11.7L59.5,8z M24.7,27.4c2.2-3.1,5.8-5.1,9.8-5.1s7.6,2,9.8,5.1c1.4,2,2.3,4.4,2.3,7.1
	c0,6.7-5.5,12.1-12.1,12.1c-6.7,0-12.1-5.4-12.1-12.1C22.4,31.9,23.2,29.4,24.7,27.4z M62.3,55.7c0,3.6-3,6.6-6.6,6.6H13.3
	c-3.6,0-6.6-3-6.6-6.6V27.4H17c-0.9,2.2-1.4,4.6-1.4,7.1c0,10.4,8.5,18.9,18.9,18.9c10.4,0,18.9-8.5,18.9-18.9
	c0-2.5-0.5-4.9-1.4-7.1h10.3V55.7z"/>
</svg>
