<?xml version="1.0" encoding="utf-8"?>
<!-- Generator: Adobe Illustrator 23.0.5, SVG Export Plug-In . SVG Version: 6.00 Build 0)  -->
<svg version="1.1" id="Layer_1" xmlns="http://www.w3.org/2000/svg" xmlns:xlink="http://www.w3.org/1999/xlink" x="0px" y="0px"
	 viewBox="0 0 53.4 69" style="enable-background:new 0 0 53.4 69;" xml:space="preserve">
<style type="text/css">
	.st0{fill:#FFFFFF;}
</style>
<path class="st0" d="M28.3,0C9.5,0,0,13.5,0,24.8c0,6.8,2.6,12.9,8.1,15.1c0.9,0.4,1.7,0,2-1c0.2-0.7,0.6-2.4,0.8-3.2
	c0.3-1,0.2-1.3-0.6-2.2c-1.6-1.9-2.6-4.3-2.6-7.8c0-10,7.5-19,19.5-19c10.6,0,16.5,6.5,16.5,15.2c0,11.4-5.1,21.1-12.6,21.1
	c-4.1,0-7.2-3.4-6.3-7.6c1.2-5,3.5-10.4,3.5-14.1c0-3.2-1.7-5.9-5.3-5.9c-4.2,0-7.6,4.4-7.6,10.3c0,3.7,1.3,6.3,1.3,6.3
	s-4.3,18.4-5.1,21.6c-1.5,6.4-0.2,14.3-0.1,15.1c0.1,0.5,0.7,0.6,0.9,0.2c0.4-0.5,5.4-6.7,7.2-13c0.5-1.8,2.8-10.9,2.8-10.9
	c1.4,2.6,5.4,4.9,9.7,4.9c12.7,0,21.4-11.6,21.4-27.2C53.4,10.9,43.5,0,28.3,0z"/>
</svg>
