<?xml version="1.0" encoding="utf-8"?>
<!-- Generator: Adobe Illustrator 23.0.5, SVG Export Plug-In . SVG Version: 6.00 Build 0)  -->
<svg version="1.1" id="Layer_1" xmlns="http://www.w3.org/2000/svg" xmlns:xlink="http://www.w3.org/1999/xlink" x="0px" y="0px"
	 viewBox="0 0 84.9 69" style="enable-background:new 0 0 84.9 69;" xml:space="preserve">
<style type="text/css">
	.st0{fill:#FFFFFF;}
</style>
<path class="st0" d="M84.9,8.2c-3.1,1.4-6.5,2.3-10,2.7c3.6-2.2,6.4-5.6,7.7-9.6c-3.4,2-7.1,3.4-11.1,4.2C68.3,2.1,63.8,0,58.8,0
	c-9.6,0-17.4,7.8-17.4,17.4c0,1.4,0.2,2.7,0.5,4C27.3,20.7,14.5,13.7,5.9,3.2c-1.5,2.6-2.4,5.6-2.4,8.8c0,6,3.1,11.4,7.7,14.5
	c-2.9-0.1-5.5-0.9-7.9-2.2c0,0.1,0,0.1,0,0.2c0,8.4,6,15.5,14,17.1c-1.5,0.4-3,0.6-4.6,0.6c-1.1,0-2.2-0.1-3.3-0.3
	c2.2,6.9,8.7,12,16.3,12.1c-6,4.7-13.5,7.5-21.6,7.5c-1.4,0-2.8-0.1-4.2-0.2C7.7,66.1,16.9,69,26.7,69c32,0,49.6-26.5,49.6-49.6
	c0-0.8,0-1.5,0-2.3C79.6,14.7,82.6,11.7,84.9,8.2z"/>
</svg>
